<svg xmlns="http://www.w3.org/2000/svg" width="222.03" height="207.295" viewBox="0 0 222.03 207.295">
  <g id="Path_17" data-name="Path 17" transform="matrix(0.94, -0.342, 0.342, 0.94, 0, 61.498)" opacity="0.1">
    <path d="M 66.82286834716797 150.1544494628906 C 63.41253280639648 150.1544494628906 60.29236602783203 149.5986480712891 57.28411483764648 148.4552917480469 C 53.87697601318359 147.1603088378906 50.5860595703125 145.0601806640625 47.50283813476563 142.2132263183594 C 43.93856048583984 138.9220581054688 40.52400588989258 134.5238494873047 37.35406112670898 129.1407318115234 C 33.8151741027832 123.1310501098633 30.48874473571777 115.7374420166016 27.46615791320801 107.1627349853516 L 6.291139125823975 40.69910430908203 C 4.961021423339844 34.82178497314453 4.657566070556641 29.54066276550293 5.389143943786621 24.99878692626953 C 6.037227153778076 20.97517585754395 7.51225471496582 17.49545478820801 9.773226737976074 14.65628814697266 C 12.26206016540527 11.53095436096191 15.73825454711914 9.11284351348877 20.10525512695313 7.46906566619873 C 24.42920112609863 5.841531753540039 29.48092842102051 5.010999202728271 35.12136077880859 5.000120162963867 L 138.2270050048828 9.719732284545898 L 138.3412475585938 9.724954605102539 L 138.4556427001953 9.724954605102539 C 144.4206085205078 9.724954605102539 150.228759765625 10.71751022338867 155.2521667480469 12.59531593322754 C 160.4861145019531 14.5518159866333 164.7800903320313 17.38506507873535 168.0148162841797 21.01634407043457 C 170.5873870849609 23.90431594848633 172.4543914794922 27.28850936889648 173.5639495849609 31.07492637634277 C 174.7846374511719 35.24060821533203 175.1076202392578 39.95143127441406 174.5242919921875 45.07758331298828 L 164.8715209960938 106.7998199462891 C 164.4192657470703 109.1232070922852 163.71142578125 111.338249206543 162.7671966552734 113.3845367431641 C 161.8797760009766 115.3077850341797 160.7552337646484 117.1432037353516 159.4248046875 118.839729309082 C 157.0202484130859 121.9060668945313 153.8238677978516 124.6678161621094 149.9244842529297 127.04833984375 C 142.4819793701172 131.5918426513672 134.0429992675781 133.9090881347656 127.8811416625977 135.6010589599609 C 127.466926574707 135.7148284912109 127.0651321411133 135.8251495361328 126.6768341064453 135.9325408935547 L 75.98203277587891 148.9699859619141 C 72.65715026855469 149.7670440673828 69.66093444824219 150.1544494628906 66.82286834716797 150.1544494628906 Z" stroke="none"/>
    <path d="M 35.0147705078125 10.00045776367188 C 25.21562194824219 10.0408935546875 17.64572143554688 12.79681396484375 13.68453979492188 17.77104187011719 C 9.806533813476563 22.64073181152344 8.973739624023438 30.04473876953125 10.99119567871094 38.98036956787109 L 32.15773010253906 105.4323043823242 C 46.14190673828125 145.1544342041016 61.707763671875 145.1544342041016 66.82286834716797 145.1544342041016 C 69.27263641357422 145.1544342041016 71.89833068847656 144.8094329833984 74.69719696044922 144.1377105712891 L 125.3000640869141 131.1256103515625 L 126.55712890625 130.779541015625 C 141.1753234863281 126.7655334472656 157.0188293457031 121.1921081542969 159.917724609375 106.1156005859375 L 169.5464935302734 44.59806823730469 C 170.5226593017578 36.17507171630859 168.7512054443359 29.36000061035156 164.2812957763672 24.34213256835938 C 158.8368682861328 18.23027038574219 149.4237670898438 14.72494506835938 137.9983673095703 14.7144775390625 L 35.0147705078125 10.00045776367188 M 35.23350524902344 0 L 138.4556274414063 4.724945068359375 C 161.1127624511719 4.724945068359375 182.7409973144531 17.61190795898438 179.4799957275391 45.74930572509766 L 169.7976379394531 107.6607360839844 C 165.2695617675781 131.2593688964844 140.0101013183594 137.4303436279297 127.9674377441406 140.7633056640625 L 77.18789672851563 153.8225708007813 C 73.849853515625 154.6251983642578 70.37249755859375 155.1544494628906 66.8228759765625 155.1544494628906 C 51.97419738769531 155.1544494628906 35.80545043945313 145.9076232910156 22.72520446777344 108.7530364990234 L 1.463058471679688 42.01596832275391 C -5.345932006835938 12.37223815917969 12.57637023925781 0 35.23350524902344 0 Z" stroke="none"/>
  </g>
</svg>
