<svg xmlns="http://www.w3.org/2000/svg" xmlns:xlink="http://www.w3.org/1999/xlink" width="300.16" height="237.62" viewBox="0 0 300.16 237.62">
  <defs>
    <clipPath id="clip-path">
      <rect id="Rectangle_2" data-name="Rectangle 2" width="300.16" height="58.09" transform="translate(16.67 179.53)" fill="none"/>
    </clipPath>
  </defs>
  <g id="rocket" transform="translate(-16.67)">
    <path id="Path_9" data-name="Path 9" d="M266.36,266.11a4.12,4.12,0,0,1,4.17-.91,6.11,6.11,0,0,1,6-4.24c6.34,0,6.85,6.24,6.85,6.24,4.47-1.35,5.33,2.6,5.33,2.76h-24a5,5,0,0,1,1.65-3.85Z" transform="translate(-151.41 -150.69)" fill="#fff"/>
    <path id="Path_10" data-name="Path 10" d="M387.31,277.56a6.29,6.29,0,0,1,3.19.86,10.25,10.25,0,0,1,17.5-.62,8,8,0,0,1,15.62,1.42,6.77,6.77,0,0,1,1-.09,6.49,6.49,0,0,1,5.77,3.58H381a6.54,6.54,0,0,1,6.31-5.15Z" transform="translate(-151.41 -150.69)" fill="#fff"/>
    <circle id="Ellipse_2" data-name="Ellipse 2" cx="3.42" cy="3.42" r="3.42" transform="translate(200.86 0)" fill="#ebf5ff"/>
    <path id="Path_11" data-name="Path 11" d="M280.54,225.52a2.29,2.29,0,1,1-2.29-2.28,2.29,2.29,0,0,1,2.29,2.28Z" transform="translate(-151.41 -150.69)" fill="#84b4fe"/>
    <path id="Path_12" data-name="Path 12" d="M372,213.5l-1.37-.73a.64.64,0,0,1-.2-.2l-.73-1.38a.5.5,0,0,0-.87,0l-.74,1.38a.48.48,0,0,1-.2.2l-1.37.73a.49.49,0,0,0,0,.87l1.37.74a.39.39,0,0,1,.2.2l.74,1.37a.5.5,0,0,0,.87,0l.73-1.37a.48.48,0,0,1,.2-.2l1.37-.74a.49.49,0,0,0,0-.87Z" transform="translate(-151.41 -150.69)" fill="#ebf5ff"/>
    <path id="Path_13" data-name="Path 13" d="M291.22,167.65l-1.73-.92a.57.57,0,0,1-.25-.26l-.93-1.72a.62.62,0,0,0-1.09,0l-.93,1.72a.69.69,0,0,1-.25.26l-1.73.92a.62.62,0,0,0,0,1.1l1.73.93a.6.6,0,0,1,.25.25l.93,1.73a.62.62,0,0,0,1.09,0l.93-1.73a.51.51,0,0,1,.25-.25l1.73-.93a.63.63,0,0,0,0-1.1Z" transform="translate(-151.41 -150.69)" fill="#c1ddf7"/>
    <path id="Path_14" data-name="Path 14" d="M411,202.34l-2.09-1.12a.75.75,0,0,1-.3-.31l-1.12-2.09a.76.76,0,0,0-1.33,0l-1.12,2.09a.75.75,0,0,1-.3.31l-2.09,1.12a.75.75,0,0,0,0,1.32l2.09,1.12a.75.75,0,0,1,.3.31l1.12,2.09a.76.76,0,0,0,1.33,0l1.12-2.09a.75.75,0,0,1,.3-.31l2.09-1.12a.75.75,0,0,0,0-1.32Z" transform="translate(-151.41 -150.69)" fill="#c1ddf7"/>
    <path id="Path_15" data-name="Path 15" d="M248.24,194.3l-1.91-1a.63.63,0,0,1-.28-.28l-1-1.91a.69.69,0,0,0-1.21,0l-1,1.91a.69.69,0,0,1-.28.28l-1.92,1a.69.69,0,0,0,0,1.21l1.92,1a.69.69,0,0,1,.28.28l1,1.91a.69.69,0,0,0,1.21,0l1-1.91a.63.63,0,0,1,.28-.28l1.91-1a.68.68,0,0,0,0-1.21Z" transform="translate(-151.41 -150.69)" fill="#84b4fe"/>
    <path id="Path_16" data-name="Path 16" d="M375.93,182.38l-1.4-.75a.53.53,0,0,1-.21-.21l-.75-1.4a.5.5,0,0,0-.88,0l-.76,1.4a.45.45,0,0,1-.2.21l-1.4.75a.5.5,0,0,0,0,.88l1.4.76a.39.39,0,0,1,.2.2l.76,1.4a.5.5,0,0,0,.88,0l.75-1.4a.45.45,0,0,1,.21-.2l1.4-.76a.5.5,0,0,0,0-.88Z" transform="translate(-151.41 -150.69)" fill="#84b4fe"/>
    <rect id="Rectangle_1" data-name="Rectangle 1" width="19.93" height="93.59" transform="translate(165.66 132.73)"/>
    <path id="Path_17" data-name="Path 17" d="M334.64,288.77a7.29,7.29,0,1,0-14.57,0s-.95,17.23,7.28,26.4C335.58,306,334.64,288.77,334.64,288.77Z" transform="translate(-151.41 -150.69)" fill="#ebf5ff"/>
    <path id="Path_18" data-name="Path 18" d="M301.9,249.31s-27.28,13.21-16.47,52.19c0,0,5.77-19.6,24.29-24.67Z" transform="translate(-151.41 -150.69)" fill="#84b4fe"/>
    <path id="Path_19" data-name="Path 19" d="M353.05,249.31s27.29,13.21,16.47,52.19c0,0-5.77-19.6-24.28-24.67Z" transform="translate(-151.41 -150.69)" fill="#84b4fe"/>
    <path id="Path_20" data-name="Path 20" d="M336.33,285H317.78a1.56,1.56,0,0,1-1.52-1.22l-1-4.49a1.56,1.56,0,0,1,1.53-1.91h20.58a1.56,1.56,0,0,1,1.53,1.91l-1,4.49A1.57,1.57,0,0,1,336.33,285Z" transform="translate(-151.41 -150.69)" fill="#214a81"/>
    <path id="Path_21" data-name="Path 21" d="M300.29,238.78s2.85,26.14,11.65,42.7a40.27,40.27,0,0,1,30.53,0s10.1-14,12.17-44.77c1.19-17.74-.24-38-6.11-55.46h-41C302,195.47,298.13,214.57,300.29,238.78Z" transform="translate(-151.41 -150.69)" fill="#c1ddf7"/>
    <path id="Path_22" data-name="Path 22" d="M324.18,152.93a93.68,93.68,0,0,0-16.7,28.32h41c-3.76-11.17-9.34-21.19-17.24-28.67a5,5,0,0,0-7.06.35Z" transform="translate(-151.41 -150.69)" fill="#214a81"/>
    <path id="Path_23" data-name="Path 23" d="M326.75,237.52s-12.59,28.61,0,62.62C326.75,300.14,340.74,271.76,326.75,237.52Z" transform="translate(-151.41 -150.69)" fill="#84b4fe"/>
    <circle id="Ellipse_3" data-name="Ellipse 3" cx="15.84" cy="15.84" r="15.84" transform="translate(160.68 44.44)" fill="#214a81"/>
    <circle id="Ellipse_4" data-name="Ellipse 4" cx="11" cy="11" r="11" transform="translate(163.297 68.479) rotate(-76.78)" fill="#ffd474"/>
    <g id="Group_8" data-name="Group 8" clip-path="url(#clip-path)">
      <ellipse id="Ellipse_5" data-name="Ellipse 5" cx="23.18" cy="22.86" rx="23.18" ry="22.86" transform="translate(125.1 207.47)"/>
      <ellipse id="Ellipse_6" data-name="Ellipse 6" cx="20.77" cy="20.48" rx="20.77" ry="20.48" transform="translate(198.43 209.85)"/>
      <ellipse id="Ellipse_7" data-name="Ellipse 7" cx="16.24" cy="16.01" rx="16.24" ry="16.01" transform="translate(168.7 196.57)"/>
      <ellipse id="Ellipse_8" data-name="Ellipse 8" cx="11.31" cy="11.15" rx="11.31" ry="11.15" transform="translate(144.03 191.72)"/>
      <ellipse id="Ellipse_9" data-name="Ellipse 9" cx="7.73" cy="7.62" rx="7.73" ry="7.62" transform="translate(176.46 186.04)"/>
      <ellipse id="Ellipse_10" data-name="Ellipse 10" cx="13.7" cy="13.51" rx="13.7" ry="13.51" transform="translate(156.74 198.9)"/>
      <ellipse id="Ellipse_11" data-name="Ellipse 11" cx="41.89" cy="41.3" rx="41.89" ry="41.3" transform="translate(19.18 223.18)"/>
      <ellipse id="Ellipse_12" data-name="Ellipse 12" cx="31.41" cy="30.96" rx="31.41" ry="30.96" transform="translate(79.94 209.86)"/>
      <ellipse id="Ellipse_13" data-name="Ellipse 13" cx="44.39" cy="43.77" rx="44.39" ry="43.77" transform="translate(220.56 218.12)"/>
      <ellipse id="Ellipse_14" data-name="Ellipse 14" cx="31.41" cy="30.96" rx="31.41" ry="30.96" transform="translate(123.45 220.67)"/>
      <ellipse id="Ellipse_15" data-name="Ellipse 15" cx="35.3" cy="34.8" rx="35.3" ry="34.8" transform="translate(157.3 212.99)"/>
    </g>
  </g>
</svg>
