<svg id="_17" data-name="17" xmlns="http://www.w3.org/2000/svg" viewBox="0 0 799.97 799.52"><defs><style>.cls-1{fill:#fff;}.cls-1,.cls-2,.cls-3{fill-rule:evenodd;}.cls-2{fill:#eaeaea;}</style></defs><polygon class="cls-1" points="0 0 799.97 0 799.97 799.52 0 799.52 0 0 0 0"/><path class="cls-2" d="M293.18,346.71l-2.92,77.69c0,.94,10.76,12.53,14.52,16,22.11,20.63,147.16,54.21,125,33.59-27.71-25.82-27.71-55.36,0-65.91l241.83-92.18,22.48,20.94,8.59-54.25-3.54-3.28-86.24-18.09,22.49,20.93L393.58,374.34c-27.71,10.58-72.67-1.79-100.4-27.63Z" transform="translate(-0.02 -0.23)"/><path class="cls-3" d="M0,126.79A48.61,48.61,0,0,1,37.46,174.1a48.91,48.91,0,0,1-1.16,10.63c1.51-.14,3.07-.23,4.63-.23a48.7,48.7,0,0,1,47.92,57,26.52,26.52,0,0,1,34.86,6.51,26.48,26.48,0,0,1,34.43,36.89,31.49,31.49,0,0,1,4.25-.28,35.51,35.51,0,0,1,7.49.8,68.75,68.75,0,0,1,98.73,31.9,92.42,92.42,0,0,1,100.32,19.45,63.79,63.79,0,0,0,83.66-5.72L669.87,114,649.66,93.77l77.49-7.7,3.18,3.14-7.73,77.46-20.18-20.18L485.13,363.66a63.74,63.74,0,0,0,0,90.15,7.75,7.75,0,0,1,2.25,3.66,92.45,92.45,0,0,1,15.42,82.1,67.55,67.55,0,0,1,34.47,117.84H539a57.54,57.54,0,0,1,55.46,73l2.35,0a48.5,48.5,0,0,1,38.33,18.68,26.48,26.48,0,0,1,34.18,35.31A49,49,0,0,1,693,799.76H0v-673ZM404,303.83a5.35,5.35,0,1,1-5.37,5.35,5.34,5.34,0,0,1,5.37-5.35Zm31.55-4.32a5.35,5.35,0,1,1-5.36,5.33,5.34,5.34,0,0,1,5.36-5.33Zm-4.92,17.64a5.35,5.35,0,1,1-5.35,5.34,5.35,5.35,0,0,1,5.35-5.34Zm30.12-34a5.35,5.35,0,1,1-5.36,5.33,5.35,5.35,0,0,1,5.36-5.33Zm-38.93-.46a5.35,5.35,0,1,1-5.35,5.33,5.35,5.35,0,0,1,5.35-5.33Zm-152.19-7.1a11.29,11.29,0,1,1-11.32,11.28,11.28,11.28,0,0,1,11.32-11.28Zm107.76,53a5.35,5.35,0,1,0-5.36,5.35,5.36,5.36,0,0,0,5.36-5.35ZM540.2,469.81a5.35,5.35,0,1,0-10.7,0,5.35,5.35,0,0,0,10.7,0Zm9.43,56.69a11.3,11.3,0,1,0-11.29,11.29,11.23,11.23,0,0,0,11.29-11.29Zm-21-166.7a5.35,5.35,0,1,0-5.34,5.36,5.34,5.34,0,0,0,5.34-5.36Zm3.48,59a5.35,5.35,0,1,0-5.37,5.36,5.36,5.36,0,0,0,5.37-5.36Zm.64,72.48a5.36,5.36,0,1,0-5.36,5.34,5.39,5.39,0,0,0,5.36-5.34Zm-11.34-28A5.4,5.4,0,0,0,516,458a5.35,5.35,0,1,0,5.37,5.34Zm3.31-20.65a5.35,5.35,0,1,0-5.35,5.35,5.36,5.36,0,0,0,5.35-5.35Zm-20.72-20a5.36,5.36,0,1,0-5.33,5.34,5.36,5.36,0,0,0,5.33-5.34Zm11.28-42A11.3,11.3,0,1,0,504,392a11.28,11.28,0,0,0,11.31-11.3ZM328.44,291a5.35,5.35,0,1,1-5.34,5.34,5.36,5.36,0,0,1,5.34-5.34Zm28,11.32a5.35,5.35,0,1,1-5.35,5.34,5.35,5.35,0,0,1,5.35-5.34ZM377.13,299a5.35,5.35,0,1,1-5.36,5.34,5.35,5.35,0,0,1,5.36-5.34Zm20,20.68A5.35,5.35,0,1,1,391.8,325a5.35,5.35,0,0,1,5.33-5.35Z" transform="translate(-0.02 -0.23)"/></svg>